<svg width="269" height="80" viewBox="0 0 269 80" fill="none" xmlns="http://www.w3.org/2000/svg">
<path fill-rule="evenodd" clip-rule="evenodd" d="M253.471 7.22348C254.45 7.25725 255.427 7.09715 256.345 6.7523C257.263 6.40745 258.103 5.88465 258.82 5.21377C259.536 4.54293 260.113 3.73715 260.518 2.84252C260.923 1.94789 261.149 0.981981 261.181 0H256.749C256.749 0.957894 256.37 1.87656 255.694 2.55387C255.019 3.23121 254.102 3.61175 253.146 3.61175C252.191 3.61175 251.274 3.23121 250.599 2.55387C249.923 1.87656 249.543 0.957894 249.543 0H245.436C245.511 1.98643 246.368 3.86204 247.82 5.21597C249.272 6.56994 251.2 7.29178 253.182 7.22348H253.471ZM48.8571 72.0902L54.4778 9.64331H61.972L65.2868 72.0902H48.8571ZM154.064 27.5214C151.915 27.9759 149.736 28.2657 147.543 28.3882C140.733 28.3882 136.662 25.535 136.662 17.7336V9.64331H143.327V17.8058C143.327 21.4898 144.66 22.8261 148.083 22.8261C150.089 22.7192 152.086 22.4901 154.064 22.1399V9.64331H160.73V40.0902H154.064V27.5214ZM0.432342 72.0903H41.3264L46.839 9.64338H0L0.432342 72.0903ZM259.127 40.0902V18.9616L247.381 40.0902H239.887V9.64331H246.661V30.7359L258.118 9.64331H265.612V40.0902H259.127ZM219.134 33.3002L216.648 40.0902H209.406L221.404 9.60718H228.25L239.816 40.0902H232.826L230.448 33.3002H219.134ZM224.791 17.0835L228.826 28.4243H220.467L224.791 17.0835ZM87.8769 72.0902H80.6709L76.9238 9.64331H87.8769V72.0902ZM183.825 40.0902H190.455V15.3137H199.642V40.0902H206.344V15.3137H216.396V9.64331H182.961L171.539 30.7359V9.64331H164.729V40.0902H172.26L183.681 18.9616L183.825 40.0902ZM152.479 56.9932C152.479 47.3137 158.424 40.9932 167.54 40.9932C176.403 40.9932 182.42 47.4582 182.42 56.9932C182.52 59.0258 182.206 61.0574 181.499 62.9652C180.791 64.8725 179.705 66.6163 178.305 68.0902C176.905 69.5642 175.221 70.7373 173.355 71.5391C171.489 72.3409 169.48 72.7544 167.45 72.7544C165.419 72.7544 163.41 72.3409 161.544 71.5391C159.679 70.7373 157.995 69.5642 156.595 68.0902C155.195 66.6163 154.108 64.8725 153.401 62.9652C152.693 61.0574 152.38 59.0258 152.479 56.9932ZM167.539 67.3951C162.351 67.3951 159.216 63.3861 159.216 56.8488C159.216 50.3116 162.387 46.447 167.431 46.447C172.475 46.447 175.682 50.4561 175.682 56.8488C175.682 63.2416 172.548 67.3951 167.539 67.3951ZM208.757 56.9932C208.757 47.3137 214.738 40.9932 223.818 40.9932C232.825 40.9932 238.842 47.4582 238.734 56.9932C238.877 59.054 238.595 61.1221 237.907 63.0688C237.218 65.0155 236.137 66.7997 234.731 68.3102C233.326 69.8206 231.625 71.0247 229.735 71.8482C227.845 72.6717 225.806 73.0964 223.746 73.0964C221.685 73.0964 219.647 72.6717 217.757 71.8482C215.867 71.0247 214.166 69.8206 212.76 68.3102C211.355 66.7997 210.274 65.0155 209.585 63.0688C208.896 61.1221 208.615 59.054 208.757 56.9932ZM223.818 67.3951C218.666 67.3951 215.531 63.3861 215.531 56.8488C215.531 50.3116 218.702 46.447 223.746 46.447C228.79 46.447 231.997 50.4561 231.997 56.8488C231.997 63.2416 228.97 67.3951 223.818 67.3951ZM183.825 41.7156H196.795H196.904C203.461 41.7156 208.073 44.9661 208.073 51.6117C208.073 58.2573 203.353 61.3273 197.264 61.3273H190.418V72.1625H183.825V41.7156ZM196.255 55.9457H190.418V47.1692H196.399C199.354 47.1692 201.551 48.3611 201.551 51.5755C201.551 54.79 199.354 55.9457 196.363 55.9457H196.255ZM118.719 72.3068L109.207 10.5823L116.593 9.42651L126.141 71.1511L118.719 72.3068ZM91.1919 71.9818H105.784V9.64331H91.0838L91.1919 71.9818ZM136.662 41.6072H154.172L154.136 47.386H143.327V72.0541H136.662V41.6072ZM265.613 66.5643V41.7156H243.995V46.3386C243.995 55.3318 242.698 61.6885 239.131 66.4921H236.825V80H243.238V72.1625H262.55V80H269V66.5643H265.613ZM246.552 66.5642H258.947V47.2053H250.588V47.711C250.906 54.2406 249.514 60.7399 246.552 66.5642Z" fill="white"/>
</svg>
