<svg width="116" height="42" viewBox="0 0 116 42" fill="none" xmlns="http://www.w3.org/2000/svg">
<path d="M60.8473 29.6381C65.5573 29.6381 68.4886 26.4872 68.4886 21.4478V21.4259C68.4886 16.3975 65.5463 13.2465 60.8473 13.2465C56.1593 13.2465 53.2059 16.3865 53.2059 21.4259V21.4478C53.2059 26.4872 56.1483 29.6381 60.8473 29.6381ZM60.8473 26.8275C58.2453 26.8275 56.5875 24.7635 56.5875 21.4478V21.4259C56.5875 18.1102 58.2563 16.0572 60.8473 16.0572C63.4493 16.0572 65.1071 18.1212 65.1071 21.4259V21.4478C65.1071 24.7305 63.4822 26.8275 60.8473 26.8275ZM71.7311 29.3636H75.0467V24.3682H78.0879C81.4365 24.3682 83.6542 22.2163 83.6542 18.9556V18.9336C83.6542 15.6729 81.4365 13.521 78.0879 13.521H71.7311V29.3636ZM77.2864 16.145C79.1858 16.145 80.2947 17.1441 80.2947 18.9446V18.9666C80.2947 20.7671 79.1858 21.7772 77.2864 21.7772H75.0467V16.145H77.2864ZM93.7585 29.6381C97.6012 29.6381 100.379 27.2337 100.675 23.8632L100.686 23.7424H97.4585L97.4365 23.8522C97.0193 25.7296 95.6799 26.8275 93.7695 26.8275C91.2334 26.8275 89.6085 24.7635 89.6085 21.4259V21.4149C89.6085 18.0992 91.2224 16.0572 93.7585 16.0572C95.7348 16.0572 97.0303 17.199 97.4036 18.9446L97.4475 19.1313H100.675L100.664 19.0324C100.368 15.6729 97.6122 13.2465 93.7585 13.2465C89.1364 13.2465 86.216 16.3206 86.216 21.4259V21.4368C86.216 26.5421 89.1254 29.6381 93.7585 29.6381Z" fill="white"/>
<g clip-path="url(#clip0)">
<path d="M24.1357 5.04407V25.5392L34.9174 31.801L35.7273 32.2719L35.8117 32.3186C35.8328 32.3356 35.8539 32.3441 35.8749 32.3568C35.9129 32.3822 35.9509 32.3992 35.9846 32.4204C36.0268 32.4459 36.069 32.4671 36.1112 32.4841C36.4486 32.6538 36.7354 32.7301 36.9928 32.7301C37.229 32.7301 37.4399 32.6665 37.6466 32.5477L39.8485 31.2707C40.0256 31.1689 40.1142 31.0332 40.1184 30.8974H40.1227V10.3853L37.0307 12.1162L36.7945 12.1629L36.1154 11.781L35.8792 11.6495L24.1357 5.04407Z" fill="#5A76BF"/>
<path d="M35.875 9.91444V32.3569C35.913 32.3823 35.9509 32.3993 35.9847 32.4205C36.0269 32.446 36.069 32.4672 36.1112 32.4841V9.82959L35.875 9.91444Z" fill="#2D3D8D"/>
<path d="M28.7121 4.82766L27.5563 3.33009H27.5605V3.32585L27.4424 3.12645L27.7166 2.96948L39.8523 10.0289C40.215 10.241 40.215 10.5804 39.8523 10.7968L37.6504 12.0737C37.1569 12.358 36.6254 12.3325 35.8155 11.8446L34.9254 11.3186L28.7121 4.82766Z" fill="#374CB5"/>
<path d="M27.4426 3.13074L39.1269 9.91013V10.0459L36.2206 11.7344L26.291 5.00165L27.4426 3.44043V3.13074Z" fill="#374CB5"/>
<path d="M35.6426 11.4035L36.2205 11.7344L39.1268 10.0459L38.5489 9.71497L35.6426 11.4035Z" fill="#D8D8D8"/>
<path d="M38.5492 9.71072L38.5323 9.7192L37.2922 10.4447L36.7059 10.7798L36.5625 10.8689L36.0394 11.1701L35.6471 11.3992L35.6429 11.4034L24.9203 5.17981L24.6503 5.02284L24.6419 5.01435L24.625 5.00163L24.6419 4.99738L25.0257 4.77253L25.688 4.38647L26.2659 4.04708H26.2701L27.5313 3.32163L27.5355 3.31738L29.4 4.39496L30.058 4.78102L38.4438 9.65557L38.5492 9.71072Z" fill="#E9E9E9"/>
<path opacity="0.1" d="M38.5496 9.71487L37.3011 10.4403L26.2705 4.04699L27.5317 3.32153L29.2949 4.33972L29.953 4.72578L30.0584 4.78093L38.5496 9.71487Z" fill="#DCDBE4"/>
<path opacity="0.1" d="M25.0215 4.76829L25.688 4.38647L25.6922 4.39072L25.7175 4.3992L36.7101 10.7798L36.5624 10.8689L36.0394 11.1659L25.0552 4.78526L25.0257 4.77254L25.0215 4.76829Z" fill="#DCDBE4"/>
<path d="M24.1318 5.0483L34.9262 11.3228L35.2172 11.1531L24.4229 4.88708L24.1318 5.0483Z" fill="#374CB5"/>
<path opacity="0.5" d="M29.7839 8.37439C27.3332 6.94045 25.165 5.65076 25.165 5.65076L29.7839 8.37439Z" fill="#C1C1C1"/>
<path opacity="0.5" d="M35.8795 11.972L29.7842 8.37439C32.0789 9.715 34.6182 11.1744 35.8795 11.8235V11.972Z" fill="#C1C1C1"/>
<path opacity="0.5" d="M36.1279 11.9465C36.3515 12.0568 36.5202 12.129 36.6046 12.1544C37.0559 12.2774 37.3512 12.2011 37.4271 12.1714C37.3639 12.1926 37.1909 12.2562 37.1065 12.3156C36.8661 12.4768 36.8324 12.778 36.8197 13.0411C36.7944 13.5035 36.8281 31.2156 36.8281 31.2156C36.8281 31.2156 36.6425 13.7623 36.6341 13.3126C36.6257 12.8629 36.5751 12.5787 36.5202 12.4641C36.3852 12.2096 36.1996 12.1587 36.1996 12.1587L36.1279 12.1162V11.9465Z" fill="#C1C1C1"/>
<path d="M20.4873 8.27686V28.0084L30.8683 34.0369L31.6486 34.4908L31.7288 34.5332C31.7499 34.5459 31.7709 34.5587 31.7878 34.5672C31.8258 34.5926 31.8595 34.6096 31.8933 34.6308C31.9355 34.6562 31.9734 34.6775 32.0156 34.6944C32.3404 34.8599 32.6188 34.932 32.8635 34.932C33.0912 34.932 33.2937 34.8684 33.492 34.7581L35.6137 33.532C35.7867 33.4302 35.871 33.3029 35.8752 33.1714H35.8794V13.4187L32.9014 15.0859L32.6736 15.1326L32.0198 14.7635L31.792 14.6363L20.4873 8.27686Z" fill="#5A76BF"/>
<path d="M31.7881 12.9647V34.5672C31.826 34.5926 31.8598 34.6096 31.8935 34.6308C31.9357 34.6562 31.9737 34.6775 32.0159 34.6944V12.8799L31.7881 12.9647Z" fill="#2D3D8D"/>
<path d="M24.8912 8.06899L23.7776 6.62657H23.7819L23.668 6.43141L23.9295 6.27869L35.6139 13.0751C35.964 13.2829 35.964 13.6096 35.6139 13.8132L33.4921 15.0435C33.0155 15.3151 32.5051 15.2896 31.7247 14.8229L30.8684 14.3181L24.8912 8.06899Z" fill="#374CB5"/>
<path d="M23.6722 6.43567L34.9179 12.9605V13.0963L32.1212 14.7169L22.5586 8.23446L23.6722 6.73688V6.43567Z" fill="url(#paint0_linear)"/>
<path d="M31.5654 14.3987L32.1222 14.7168L34.9189 13.0962L34.3663 12.7738L31.5654 14.3987Z" fill="#D8D8D8"/>
<path d="M34.3614 12.7738L34.3488 12.778L33.1508 13.478L32.5898 13.8004L32.4506 13.881L31.9486 14.1738L31.569 14.3944L31.5648 14.3986L21.2429 8.40407L20.9856 8.25559L20.9729 8.2471L20.9561 8.23862L20.9729 8.23013L21.3441 8.01377L21.9853 7.64468L22.5379 7.31801H22.5421L23.7569 6.61801L23.7611 6.61377L25.5539 7.65316L26.1866 8.0265L34.2644 12.7144L34.3614 12.7738Z" fill="#E9E9E9"/>
<path opacity="0.1" d="M34.3613 12.7738L33.1634 13.4696L22.542 7.31804L23.7568 6.61804L25.4525 7.59804L26.0895 7.96713L26.1865 8.02653L34.3613 12.7738Z" fill="#DCDBE4"/>
<path opacity="0.1" d="M21.3438 8.00959L21.9807 7.6405L21.9849 7.64475L22.0102 7.65747L32.5936 13.8005L32.4502 13.8811L31.9483 14.1738L21.3733 8.02656L21.3438 8.01384V8.00959Z" fill="#DCDBE4"/>
<path d="M20.4834 8.28112L30.8728 14.3181L31.1554 14.1569L20.7618 8.12415L20.4834 8.28112Z" fill="#374CB5"/>
<path d="M32.9823 17.6102C33.1679 17.5975 33.3324 17.5381 33.5011 17.4405L34.1844 17.0459L35.6228 16.2144C35.7789 16.1253 35.8633 16.0108 35.8844 15.8962V18.2041V18.2635H35.8801C35.8717 18.395 35.7958 18.5265 35.6228 18.6241L33.5011 19.8502C33.0877 20.0878 32.6448 20.0962 32.0205 19.7865V17.3768C32.3917 17.5635 32.7039 17.6356 32.9823 17.6102Z" fill="#21359B"/>
<path d="M32.0205 31.1393V32.1702C32.3917 32.3568 32.7039 32.429 32.9823 32.3993C33.1679 32.3865 33.3324 32.3271 33.5011 32.2296L34.1844 31.835L35.6228 31.0035C35.7789 30.9144 35.8633 30.7999 35.8844 30.6853V29.6544C35.8633 29.7732 35.7789 29.8835 35.6228 29.9726L34.1844 30.8041L33.5011 31.1987C33.3324 31.2962 33.1679 31.3514 32.9823 31.3684C32.7039 31.3981 32.3917 31.3259 32.0205 31.1393Z" fill="#21359B"/>
<path opacity="0.5" d="M25.9245 11.4841C23.5623 10.1053 21.4785 8.8623 21.4785 8.8623L25.9245 11.4841Z" fill="#C1C1C1"/>
<path opacity="0.5" d="M31.7923 14.9459L25.9248 11.4841C28.1309 12.7738 30.5775 14.1781 31.7923 14.8059V14.9459Z" fill="#C1C1C1"/>
<path opacity="0.5" d="M32.0332 14.9248C32.2483 15.0309 32.4086 15.103 32.493 15.1242C32.9275 15.243 33.2101 15.1666 33.286 15.1412C33.2269 15.1624 33.0582 15.226 32.9739 15.2812C32.7419 15.4381 32.7123 15.7266 32.6997 15.9769C32.6786 16.4181 32.7081 33.4727 32.7081 33.4727C32.7081 33.4727 32.5309 16.6684 32.5225 16.2357C32.5141 15.803 32.4677 15.5272 32.4128 15.4212C32.2821 15.1751 32.1049 15.1284 32.1049 15.1284L32.0332 15.086V14.9248Z" fill="#C1C1C1"/>
<path d="M17.2314 12.6593V31.0841L26.9248 36.7138L27.6546 37.1381L27.7263 37.1805C27.7432 37.1932 27.7642 37.2017 27.7853 37.2145C27.8191 37.2357 27.8528 37.2526 27.8866 37.2738C27.9245 37.2951 27.9625 37.3163 28.0005 37.3332C28.3042 37.486 28.5615 37.5538 28.7935 37.5538C29.0086 37.5538 29.1942 37.4945 29.3798 37.3884L31.3581 36.2429C31.5184 36.1496 31.5986 36.0266 31.6028 35.9035H31.607V17.4617L28.8272 19.0187L28.6121 19.0611L28.0005 18.7175L27.7853 18.5987L17.2314 12.6593Z" fill="#5A76BF"/>
<path d="M27.7812 17.0375V37.2103C27.815 37.2315 27.8487 37.2485 27.8825 37.2697C27.9204 37.2909 27.9584 37.3121 27.9964 37.3291V16.9612L27.7812 17.0375Z" fill="#2D3D8D"/>
<path d="M21.3443 12.4684L20.3024 11.1236H20.3066V11.1193L20.2012 10.9411L20.4458 10.8011L31.3583 17.1478C31.6831 17.3387 31.6831 17.6442 31.3583 17.8393L29.3757 18.989C28.9328 19.2436 28.4519 19.2181 27.7222 18.7811L26.925 18.3102L21.3443 12.4684Z" fill="#374CB5"/>
<path d="M20.2008 10.9412L30.704 17.0375V17.1606L28.093 18.6793L19.1631 12.6212L20.2008 11.2212V10.9412Z" fill="url(#paint1_linear)"/>
<path d="M27.5742 18.3782L28.0931 18.6794L30.7041 17.1606L30.1895 16.8594L27.5742 18.3782Z" fill="#D8D8D8"/>
<path d="M30.1856 16.8593L30.1729 16.8636L29.0551 17.5169L28.5321 17.8181L28.4013 17.8987L27.9289 18.1702L27.5745 18.3739V18.3781L17.9318 12.7824L17.6913 12.6424L17.6829 12.6339L17.666 12.6254L17.6829 12.6169L18.0288 12.4175L18.6235 12.0739L19.1424 11.7684H19.1466L20.2813 11.1108H20.2855L21.9601 12.0781L22.5507 12.426L30.0928 16.8084L30.1856 16.8593Z" fill="#E9E9E9"/>
<path opacity="0.1" d="M30.1855 16.8593L29.0634 17.5127L19.1465 11.7684L20.2812 11.1108L21.863 12.0272L22.4578 12.3751L22.5506 12.426L30.1855 16.8593Z" fill="#DCDBE4"/>
<path opacity="0.1" d="M18.0244 12.4132L18.6234 12.0696L18.6276 12.0738L18.6487 12.0823L28.5319 17.8181L28.4011 17.8987L27.9329 18.1659L18.0539 12.4302L18.0286 12.4175L18.0244 12.4132Z" fill="#DCDBE4"/>
<path d="M17.2275 12.6678L26.9294 18.306L27.1909 18.1532L17.4848 12.5193L17.2275 12.6678Z" fill="#536ADD"/>
<path d="M28.8949 21.3775C29.0678 21.3647 29.2239 21.3096 29.38 21.2205L30.0169 20.8514L31.3583 20.075C31.5017 19.9902 31.5819 19.8841 31.603 19.7781V21.9332V21.9884H31.5987C31.5903 22.1114 31.5186 22.2344 31.3583 22.3278L29.3758 23.4732C28.9877 23.6938 28.5743 23.7023 27.9922 23.4138V21.1653C28.3465 21.335 28.6376 21.4029 28.8949 21.3775Z" fill="#21359B"/>
<path d="M27.9961 24.3727V25.3357C28.342 25.5096 28.633 25.5775 28.8946 25.552C29.0675 25.5393 29.2236 25.4842 29.3797 25.3951L30.0166 25.026L31.358 24.2496C31.5014 24.1648 31.5815 24.0587 31.6026 23.9527V22.9896C31.5858 23.0999 31.5056 23.206 31.358 23.2866L30.0166 24.063L29.3797 24.432C29.2236 24.5211 29.0675 24.5763 28.8946 24.589C28.6373 24.6145 28.3462 24.5466 27.9961 24.3727Z" fill="#21359B"/>
<path d="M27.9961 34.0114V34.9745C28.342 35.1484 28.633 35.2163 28.8946 35.1908C29.0675 35.1781 29.2236 35.1229 29.3797 35.0338L30.0166 34.6648L31.358 33.8884C31.5014 33.8035 31.5815 33.6975 31.6026 33.5872V32.6241C31.5858 32.7344 31.5056 32.8405 31.358 32.9211L30.0166 33.6975L29.3797 34.0666C29.2236 34.1557 29.0675 34.2108 28.8946 34.2235C28.6373 34.2532 28.3462 34.1854 27.9961 34.0114Z" fill="#21359B"/>
<path opacity="0.5" d="M22.306 15.6544C20.0999 14.3647 18.1553 13.2065 18.1553 13.2065L22.306 15.6544Z" fill="#C1C1C1"/>
<path opacity="0.5" d="M27.7861 18.8871L22.3066 15.6544C24.3693 16.8593 26.6514 18.1702 27.7861 18.7556V18.8871Z" fill="#C1C1C1"/>
<path opacity="0.5" d="M28.0088 18.8702C28.2113 18.9678 28.3589 19.0357 28.439 19.0569C28.844 19.1672 29.1097 19.0993 29.1814 19.0739C29.1266 19.0951 28.9705 19.1502 28.8904 19.2054C28.6753 19.3496 28.6457 19.6211 28.6331 19.8545C28.612 20.2702 28.6415 36.1921 28.6415 36.1921C28.6415 36.1921 28.477 20.4993 28.4686 20.0963C28.4601 19.6933 28.418 19.4345 28.3631 19.3327C28.2408 19.1036 28.0763 19.0569 28.0763 19.0569L28.0088 19.0187V18.8702Z" fill="#C1C1C1"/>
<path d="M14.1816 16.1423V33.5787L23.3562 38.9029L24.0437 39.306L24.1155 39.3442C24.1323 39.3569 24.1492 39.3654 24.1703 39.3738C24.204 39.3951 24.2336 39.412 24.2631 39.429C24.2968 39.4502 24.3348 39.4672 24.3728 39.4842C24.6596 39.6326 24.9043 39.6963 25.1236 39.6963C25.3261 39.6963 25.5032 39.6411 25.6804 39.5393L27.5533 38.4532C27.7051 38.3642 27.7811 38.2496 27.7811 38.1351H27.7853V20.686L25.1531 22.1581L24.9507 22.1963L24.3728 21.8696L24.1703 21.7635L14.1816 16.1423Z" fill="#5A76BF"/>
<path d="M24.1709 20.2871V39.378C24.2046 39.3992 24.2342 39.4162 24.2637 39.4331C24.2974 39.4544 24.3354 39.4713 24.3734 39.4883V20.215L24.1709 20.2871Z" fill="#2D3D8D"/>
<path d="M18.0759 15.9599L17.0931 14.6871H17.0973V14.6829L16.9961 14.5132L17.2281 14.3774L27.55 20.3805C27.8579 20.5629 27.8579 20.8514 27.55 21.0338L25.6771 22.1199C25.2553 22.3617 24.8039 22.3405 24.1164 21.9247L23.3613 21.4793L18.0759 15.9599Z" fill="#374CB5"/>
<path d="M16.9955 14.5175L26.9336 20.2829V20.4017L24.4617 21.8356L16.0127 16.1084L16.9955 14.7805V14.5175Z" fill="url(#paint2_linear)"/>
<path d="M23.9727 21.5514L24.462 21.8356L26.9338 20.4017L26.4445 20.1174L23.9727 21.5514Z" fill="#D8D8D8"/>
<path d="M26.4443 20.1175L26.4316 20.1217L25.3728 20.7411L24.8751 21.0253L24.7528 21.0975L24.3056 21.3563L23.9724 21.5514L23.9682 21.5557L14.8485 16.2569L14.6207 16.1253L14.6123 16.1169L14.5996 16.1084L14.6123 16.1041L14.9371 15.9132L15.5023 15.5866L15.9958 15.2981L17.0715 14.6787V14.6744L18.6575 15.595L19.2185 15.9217L26.3557 20.0666L26.4443 20.1175Z" fill="#E9E9E9"/>
<path opacity="0.1" d="M26.4445 20.1174L25.3815 20.7325L15.9961 15.298L17.0717 14.6786L18.5692 15.544L19.1302 15.875L19.2188 15.9216L26.4445 20.1174Z" fill="#DCDBE4"/>
<path opacity="0.1" d="M14.9375 15.9089L15.5027 15.5823L15.507 15.5865L15.528 15.595L24.8798 21.0253L24.7532 21.0974L24.3103 21.352L14.967 15.9259L14.9417 15.9132L14.9375 15.9089Z" fill="#DCDBE4"/>
<path d="M14.1777 16.1507L23.3607 21.4835L23.6054 21.3392L14.4224 16.0107L14.1777 16.1507Z" fill="#374CB5"/>
<path d="M25.2212 24.3895C25.3857 24.3768 25.5334 24.3259 25.681 24.2411L26.2842 23.8932L27.5539 23.1592C27.6888 23.0786 27.7648 22.9811 27.7817 22.875V24.9156V24.9665H27.7774C27.7732 25.0811 27.7015 25.1956 27.5497 25.2847L25.6768 26.3708C25.3098 26.5786 24.9175 26.5914 24.3691 26.3156V24.1859C24.7024 24.3514 24.9766 24.415 25.2212 24.3895Z" fill="#21359B"/>
<path d="M24.373 27.2278V28.1399C24.7021 28.3054 24.9762 28.369 25.2209 28.3435C25.3854 28.3308 25.533 28.2799 25.6807 28.1951L26.2839 27.8472L27.5536 27.1132C27.6885 27.0326 27.7645 26.9351 27.7813 26.829V25.9169C27.7645 26.0187 27.6885 26.1205 27.5536 26.2011L26.2839 26.9351L25.6807 27.2872C25.533 27.372 25.3854 27.4229 25.2209 27.4357C24.9762 27.4526 24.7021 27.389 24.373 27.2278Z" fill="#21359B"/>
<path d="M24.373 36.3447V37.2568C24.7021 37.4223 24.9762 37.4859 25.2209 37.4605C25.3854 37.4478 25.533 37.3968 25.6807 37.312L26.2839 36.9641L27.5536 36.2302C27.6885 36.1496 27.7645 36.052 27.7813 35.9459V35.0338C27.7645 35.1356 27.6885 35.2374 27.5536 35.3181L26.2839 36.052L25.6807 36.3999C25.533 36.4847 25.3854 36.5356 25.2209 36.5484C24.9762 36.5738 24.7021 36.5102 24.373 36.3447Z" fill="#21359B"/>
<path opacity="0.5" d="M18.9867 18.9763C16.8987 17.7587 15.0596 16.6599 15.0596 16.6599L18.9867 18.9763Z" fill="#C1C1C1"/>
<path opacity="0.5" d="M24.1705 22.035L18.9863 18.9762C20.9351 20.1174 23.0991 21.3604 24.1705 21.9077V22.035Z" fill="#C1C1C1"/>
<path opacity="0.5" d="M24.3857 22.0181C24.5756 22.1114 24.719 22.175 24.7907 22.1962C25.1745 22.3023 25.4234 22.2344 25.4909 22.2132C25.4403 22.2302 25.2927 22.2853 25.2167 22.3362C25.01 22.472 24.9847 22.7308 24.9721 22.9514C24.951 23.3417 24.9805 38.4108 24.9805 38.4108C24.9805 38.4108 24.8244 23.5623 24.816 23.1805C24.8076 22.7987 24.7654 22.5569 24.719 22.4593C24.6051 22.2429 24.449 22.2005 24.449 22.2005L24.3857 22.1623V22.0181Z" fill="#C1C1C1"/>
</g>
<defs>
<linearGradient id="paint0_linear" x1="34.9196" y1="10.5761" x2="22.5605" y2="10.5761" gradientUnits="userSpaceOnUse">
<stop stop-color="#275D66"/>
<stop offset="0.995" stop-color="#277281"/>
</linearGradient>
<linearGradient id="paint1_linear" x1="30.7061" y1="14.8091" x2="19.1642" y2="14.8091" gradientUnits="userSpaceOnUse">
<stop stop-color="#5D6627"/>
<stop offset="0.995" stop-color="#738127"/>
</linearGradient>
<linearGradient id="paint2_linear" x1="26.9347" y1="18.1762" x2="16.0139" y2="18.1762" gradientUnits="userSpaceOnUse">
<stop stop-color="#664220"/>
<stop offset="0.995" stop-color="#814F1E"/>
</linearGradient>
<clipPath id="clip0">
<rect width="26.5745" height="36.9091" fill="white" transform="translate(13.9199 2.96973)"/>
</clipPath>
</defs>
</svg>
