<svg width="24" height="24" viewBox="0 0 24 24" fill="none" xmlns="http://www.w3.org/2000/svg">
<path fill-rule="evenodd" clip-rule="evenodd" d="M12 6.375C12.1658 6.375 12.3247 6.44085 12.4419 6.55806C12.5592 6.67527 12.625 6.83424 12.625 7V12C12.625 12.1658 12.5592 12.3247 12.4419 12.4419C12.3247 12.5592 12.1658 12.625 12 12.625H7C6.83424 12.625 6.67527 12.5592 6.55806 12.4419C6.44085 12.3247 6.375 12.1658 6.375 12C6.375 11.8342 6.44085 11.6753 6.55806 11.5581C6.67527 11.4408 6.83424 11.375 7 11.375H11.375V7C11.375 6.83424 11.4408 6.67527 11.5581 6.55806C11.6753 6.44085 11.8342 6.375 12 6.375Z" fill="#374CB5"/>
<path fill-rule="evenodd" clip-rule="evenodd" d="M11.375 12C11.375 11.8342 11.4408 11.6753 11.5581 11.5581C11.6753 11.4408 11.8342 11.375 12 11.375H17C17.1658 11.375 17.3247 11.4408 17.4419 11.5581C17.5592 11.6753 17.625 11.8342 17.625 12C17.625 12.1658 17.5592 12.3247 17.4419 12.4419C17.3247 12.5592 17.1658 12.625 17 12.625H12.625V17C12.625 17.1658 12.5592 17.3247 12.4419 17.4419C12.3247 17.5592 12.1658 17.625 12 17.625C11.8342 17.625 11.6753 17.5592 11.5581 17.4419C11.4408 17.3247 11.375 17.1658 11.375 17V12Z" fill="#374CB5"/>
<path fill-rule="evenodd" clip-rule="evenodd" d="M12 20.75C14.3206 20.75 16.5462 19.8281 18.1872 18.1872C19.8281 16.5462 20.75 14.3206 20.75 12C20.75 9.67936 19.8281 7.45376 18.1872 5.81282C16.5462 4.17187 14.3206 3.25 12 3.25C9.67936 3.25 7.45376 4.17187 5.81282 5.81282C4.17187 7.45376 3.25 9.67936 3.25 12C3.25 14.3206 4.17187 16.5462 5.81282 18.1872C7.45376 19.8281 9.67936 20.75 12 20.75ZM12 22C14.6522 22 17.1957 20.9464 19.0711 19.0711C20.9464 17.1957 22 14.6522 22 12C22 9.34784 20.9464 6.8043 19.0711 4.92893C17.1957 3.05357 14.6522 2 12 2C9.34784 2 6.8043 3.05357 4.92893 4.92893C3.05357 6.8043 2 9.34784 2 12C2 14.6522 3.05357 17.1957 4.92893 19.0711C6.8043 20.9464 9.34784 22 12 22Z" fill="#374CB5"/>
</svg>
