<svg width="16" height="16" viewBox="0 0 16 16" fill="none" xmlns="http://www.w3.org/2000/svg">
<path fill-rule="evenodd" clip-rule="evenodd" d="M7.80407 3.5298C7.86612 3.59171 7.91536 3.66527 7.94895 3.74624C7.98255 3.82722 7.99984 3.91403 7.99984 4.0017C7.99984 4.08937 7.98255 4.17618 7.94895 4.25715C7.91536 4.33813 7.86612 4.41168 7.80407 4.47359L4.27631 8.00083L7.80407 11.5281C7.86602 11.59 7.91517 11.6636 7.9487 11.7446C7.98223 11.8255 7.99949 11.9123 7.99949 12C7.99949 12.0876 7.98223 12.1744 7.9487 12.2553C7.91517 12.3363 7.86602 12.4099 7.80407 12.4719C7.74211 12.5338 7.66856 12.583 7.58761 12.6165C7.50666 12.6501 7.4199 12.6673 7.33228 12.6673C7.24466 12.6673 7.1579 12.6501 7.07695 12.6165C6.996 12.583 6.92244 12.5338 6.86049 12.4719L2.86227 8.47272C2.80022 8.41081 2.75098 8.33726 2.71739 8.25628C2.6838 8.17531 2.6665 8.0885 2.6665 8.00083C2.6665 7.91316 2.6838 7.82635 2.71739 7.74537C2.75098 7.66439 2.80022 7.59084 2.86227 7.52893L6.86049 3.5298C6.92239 3.46773 6.99592 3.41848 7.07688 3.38488C7.15784 3.35128 7.24463 3.33398 7.33228 3.33398C7.41993 3.33398 7.50672 3.35128 7.58768 3.38488C7.66863 3.41848 7.74217 3.46773 7.80407 3.5298Z" fill="#212529"/>
<path fill-rule="evenodd" clip-rule="evenodd" d="M3.3335 8.00065C3.3335 7.82384 3.40373 7.65427 3.52876 7.52925C3.65378 7.40422 3.82335 7.33398 4.00016 7.33398H12.6668C12.8436 7.33398 13.0132 7.40422 13.1382 7.52925C13.2633 7.65427 13.3335 7.82384 13.3335 8.00065C13.3335 8.17746 13.2633 8.34703 13.1382 8.47206C13.0132 8.59708 12.8436 8.66732 12.6668 8.66732H4.00016C3.82335 8.66732 3.65378 8.59708 3.52876 8.47206C3.40373 8.34703 3.3335 8.17746 3.3335 8.00065Z" fill="#212529"/>
</svg>
