<svg width="16" height="16" viewBox="0 0 16 16" fill="none" xmlns="http://www.w3.org/2000/svg">
<path fill-rule="evenodd" clip-rule="evenodd" d="M8.19577 3.5298C8.25767 3.46773 8.33121 3.41848 8.41216 3.38488C8.49312 3.35128 8.57991 3.33398 8.66756 3.33398C8.75521 3.33398 8.842 3.35128 8.92296 3.38488C9.00391 3.41848 9.07745 3.46773 9.13935 3.5298L13.1376 7.52893C13.1996 7.59084 13.2489 7.66439 13.2824 7.74537C13.316 7.82635 13.3333 7.91316 13.3333 8.00083C13.3333 8.0885 13.316 8.17531 13.2824 8.25628C13.2489 8.33726 13.1996 8.41081 13.1376 8.47272L9.13935 12.4719C9.01422 12.597 8.84452 12.6673 8.66756 12.6673C8.4906 12.6673 8.3209 12.597 8.19577 12.4719C8.07064 12.3467 8.00035 12.177 8.00035 12C8.00035 11.823 8.07064 11.6532 8.19577 11.5281L11.7235 8.00083L8.19577 4.47359C8.13371 4.41168 8.08448 4.33813 8.05089 4.25715C8.01729 4.17618 8 4.08937 8 4.0017C8 3.91403 8.01729 3.82722 8.05089 3.74624C8.08448 3.66527 8.13371 3.59171 8.19577 3.5298Z" fill="#212529"/>
<path fill-rule="evenodd" clip-rule="evenodd" d="M2.6665 8.00065C2.6665 7.82384 2.73674 7.65427 2.86177 7.52925C2.98679 7.40422 3.15636 7.33398 3.33317 7.33398H11.9998C12.1766 7.33398 12.3462 7.40422 12.4712 7.52925C12.5963 7.65427 12.6665 7.82384 12.6665 8.00065C12.6665 8.17746 12.5963 8.34703 12.4712 8.47206C12.3462 8.59708 12.1766 8.66732 11.9998 8.66732H3.33317C3.15636 8.66732 2.98679 8.59708 2.86177 8.47206C2.73674 8.34703 2.6665 8.17746 2.6665 8.00065Z" fill="#212529"/>
</svg>
