<svg width="24" height="25" viewBox="0 0 24 25" fill="none" xmlns="http://www.w3.org/2000/svg">
<path fill-rule="evenodd" clip-rule="evenodd" d="M11.7063 5.79372C11.7994 5.88659 11.8733 5.99692 11.9237 6.11839C11.9741 6.23985 12 6.37006 12 6.50157C12 6.63307 11.9741 6.76329 11.9237 6.88475C11.8733 7.00622 11.7994 7.11654 11.7063 7.20941L6.41471 12.5003L11.7063 17.7911C11.7993 17.8841 11.873 17.9944 11.9233 18.1159C11.9736 18.2373 11.9995 18.3675 11.9995 18.499C11.9995 18.6304 11.9736 18.7606 11.9233 18.882C11.873 19.0035 11.7993 19.1138 11.7063 19.2068C11.6134 19.2998 11.5031 19.3735 11.3817 19.4238C11.2602 19.4741 11.1301 19.5 10.9987 19.5C10.8672 19.5 10.7371 19.4741 10.6157 19.4238C10.4942 19.3735 10.3839 19.2998 10.291 19.2068L4.29366 13.2081C4.20057 13.1152 4.12672 13.0049 4.07633 12.8834C4.02594 12.762 4 12.6318 4 12.5003C4 12.3688 4.02594 12.2385 4.07633 12.1171C4.12672 11.9956 4.20057 11.8853 4.29366 11.7924L10.291 5.79372C10.3838 5.70062 10.4941 5.62675 10.6156 5.57635C10.737 5.52594 10.8672 5.5 10.9987 5.5C11.1301 5.5 11.2603 5.52594 11.3818 5.57635C11.5032 5.62675 11.6135 5.70062 11.7063 5.79372Z" fill="#212529"/>
<path fill-rule="evenodd" clip-rule="evenodd" d="M5 12.5C5 12.2348 5.10536 11.9804 5.29289 11.7929C5.48043 11.6054 5.73478 11.5 6 11.5H19C19.2652 11.5 19.5196 11.6054 19.7071 11.7929C19.8946 11.9804 20 12.2348 20 12.5C20 12.7652 19.8946 13.0196 19.7071 13.2071C19.5196 13.3946 19.2652 13.5 19 13.5H6C5.73478 13.5 5.48043 13.3946 5.29289 13.2071C5.10536 13.0196 5 12.7652 5 12.5Z" fill="#212529"/>
</svg>
