<svg width="26" height="30" viewBox="0 0 26 30" fill="none" xmlns="http://www.w3.org/2000/svg">
<path d="M9.39296 2.12844e-05C9.22549 0.0249246 9.06556 0.086378 8.9245 0.180021C8.9245 0.180021 7.46488 1.09848 5.89565 2.09194C4.32642 3.08425 2.58065 4.1781 2.18142 4.39964C2.1568 4.41033 2.13255 4.42187 2.10873 4.43425C0.659499 5.32848 0.358345 6.78925 0.306422 7.60848C0.302961 7.64656 0.306422 7.67771 0.306422 7.7181C0.29373 8.02502 0.306422 8.22233 0.306422 8.22233V23.295C0.306422 25.485 2.85988 26.5385 5.28296 26.5385C6.09065 26.5385 6.89834 26.4081 7.59065 26.1773C8.05219 25.9466 8.38335 25.485 8.38335 25.0235V12.9081C8.38335 10.2543 8.96027 9.0081 10.691 7.96964C11.1526 7.73887 15.9918 4.39848 15.9918 4.39848C16.2226 4.16771 16.4603 3.69925 16.4603 3.3531V3.24464C16.4603 2.7831 16.2295 2.43002 15.8833 2.19925C15.5372 1.96848 15.0757 1.96848 14.7295 2.19925C14.6141 2.31464 7.57565 7.05348 6.07565 7.86118C4.57565 8.78425 3.17604 9.00694 2.82988 8.54541C2.72258 8.4381 2.62911 8.10925 2.61411 7.78848V7.75271V7.71579C2.61527 7.40194 2.69604 6.81117 3.33527 6.41771C3.98373 6.05656 5.59335 5.02848 7.15796 4.03848C7.81911 3.61964 7.90104 3.57464 8.41912 3.24464C8.48731 3.52651 8.65916 3.77237 8.90044 3.93327C9.14172 4.09417 9.43475 4.15831 9.72118 4.11293C10.0076 4.06754 10.2665 3.91595 10.4462 3.68834C10.6259 3.46073 10.7133 3.17379 10.691 2.88464V1.15387C10.6923 0.989404 10.6584 0.826565 10.5917 0.676267C10.5249 0.525968 10.4267 0.391685 10.3038 0.282418C10.1809 0.173151 10.036 0.0914254 9.87892 0.0427208C9.72183 -0.00598387 9.55614 -0.0205424 9.39296 2.12844e-05ZM18.6237 4.03848C18.4402 4.069 18.2669 4.14342 18.1183 4.25541C18.1183 4.25541 12.3099 8.16348 11.3037 8.83387C11.2915 8.84591 11.2796 8.85822 11.268 8.87079C10.4326 9.49733 9.93758 10.2427 9.71719 10.9246C9.56142 11.4081 9.53835 11.8027 9.53719 12.1154V12.4766C9.53553 12.5123 9.53553 12.5481 9.53719 12.5839V26.5385C9.53719 28.7308 12.0618 30 14.3695 30C15.408 30 16.3449 29.7762 17.0372 29.3146C18.4218 28.5069 25.1141 23.2939 25.1141 23.2939C25.4603 23.0631 25.691 22.7377 25.691 22.3916V7.39156C25.691 6.81464 25.4672 6.46848 25.0057 6.23771C24.6595 6.00694 24.0907 6.11541 23.7445 6.34618C21.8983 7.73079 16.9287 11.64 15.7749 12.3323C14.1595 13.2554 12.6376 13.4862 12.0607 12.9093C11.8299 12.6785 11.8449 12.4616 11.8449 12.1154C11.8518 11.9169 11.8737 11.7462 11.9176 11.61C11.9822 11.4093 12.1137 11.1623 12.6018 10.7816C12.6249 10.7631 12.6133 10.7643 12.6376 10.7458C13.4718 10.1885 16.023 8.44964 17.6868 7.31887C17.7811 7.57175 17.961 7.7836 18.1953 7.91755C18.4296 8.0515 18.7034 8.09908 18.9692 8.05203C19.2349 8.00497 19.4758 7.86624 19.6498 7.65998C19.8239 7.45372 19.9201 7.19298 19.9218 6.9231V5.19233C19.9231 5.02787 19.8892 4.86503 19.8224 4.71473C19.7556 4.56443 19.6575 4.43015 19.5346 4.32088C19.4116 4.21161 19.2668 4.12989 19.1097 4.08118C18.9526 4.03248 18.7869 4.01792 18.6237 4.03848ZM23.3833 12.4766V14.7843L17.6141 19.2543V16.9466L23.3833 12.4766Z" fill="#374CB5"/>
</svg>
