<svg width="30" height="30" viewBox="0 0 30 30" fill="none" xmlns="http://www.w3.org/2000/svg">
<path d="M3 6C3 5.20435 3.31607 4.44129 3.87868 3.87868C4.44129 3.31607 5.20435 3 6 3H24C24.7956 3 25.5587 3.31607 26.1213 3.87868C26.6839 4.44129 27 5.20435 27 6H3Z" fill="#374CB5"/>
<path fill-rule="evenodd" clip-rule="evenodd" d="M3 7.5H27V24C27 24.7956 26.6839 25.5587 26.1213 26.1213C25.5587 26.6839 24.7956 27 24 27H6C5.20435 27 4.44129 26.6839 3.87868 26.1213C3.31607 25.5587 3 24.7956 3 24V7.5ZM12.75 13.5C13.1478 13.5 13.5294 13.342 13.8107 13.0607C14.092 12.7794 14.25 12.3978 14.25 12C14.25 11.6022 14.092 11.2206 13.8107 10.9393C13.5294 10.658 13.1478 10.5 12.75 10.5C12.3522 10.5 11.9706 10.658 11.6893 10.9393C11.408 11.2206 11.25 11.6022 11.25 12C11.25 12.3978 11.408 12.7794 11.6893 13.0607C11.9706 13.342 12.3522 13.5 12.75 13.5ZM18.75 12C18.75 12.3978 18.592 12.7794 18.3107 13.0607C18.0294 13.342 17.6478 13.5 17.25 13.5C16.8522 13.5 16.4706 13.342 16.1893 13.0607C15.908 12.7794 15.75 12.3978 15.75 12C15.75 11.6022 15.908 11.2206 16.1893 10.9393C16.4706 10.658 16.8522 10.5 17.25 10.5C17.6478 10.5 18.0294 10.658 18.3107 10.9393C18.592 11.2206 18.75 11.6022 18.75 12ZM21.75 13.5C22.1478 13.5 22.5294 13.342 22.8107 13.0607C23.092 12.7794 23.25 12.3978 23.25 12C23.25 11.6022 23.092 11.2206 22.8107 10.9393C22.5294 10.658 22.1478 10.5 21.75 10.5C21.3522 10.5 20.9706 10.658 20.6893 10.9393C20.408 11.2206 20.25 11.6022 20.25 12C20.25 12.3978 20.408 12.7794 20.6893 13.0607C20.9706 13.342 21.3522 13.5 21.75 13.5ZM9.75 16.5C9.75 16.8978 9.59196 17.2794 9.31066 17.5607C9.02936 17.842 8.64782 18 8.25 18C7.85218 18 7.47064 17.842 7.18934 17.5607C6.90804 17.2794 6.75 16.8978 6.75 16.5C6.75 16.1022 6.90804 15.7206 7.18934 15.4393C7.47064 15.158 7.85218 15 8.25 15C8.64782 15 9.02936 15.158 9.31066 15.4393C9.59196 15.7206 9.75 16.1022 9.75 16.5ZM12.75 18C13.1478 18 13.5294 17.842 13.8107 17.5607C14.092 17.2794 14.25 16.8978 14.25 16.5C14.25 16.1022 14.092 15.7206 13.8107 15.4393C13.5294 15.158 13.1478 15 12.75 15C12.3522 15 11.9706 15.158 11.6893 15.4393C11.408 15.7206 11.25 16.1022 11.25 16.5C11.25 16.8978 11.408 17.2794 11.6893 17.5607C11.9706 17.842 12.3522 18 12.75 18ZM18.75 16.5C18.75 16.8978 18.592 17.2794 18.3107 17.5607C18.0294 17.842 17.6478 18 17.25 18C16.8522 18 16.4706 17.842 16.1893 17.5607C15.908 17.2794 15.75 16.8978 15.75 16.5C15.75 16.1022 15.908 15.7206 16.1893 15.4393C16.4706 15.158 16.8522 15 17.25 15C17.6478 15 18.0294 15.158 18.3107 15.4393C18.592 15.7206 18.75 16.1022 18.75 16.5ZM21.75 18C22.1478 18 22.5294 17.842 22.8107 17.5607C23.092 17.2794 23.25 16.8978 23.25 16.5C23.25 16.1022 23.092 15.7206 22.8107 15.4393C22.5294 15.158 22.1478 15 21.75 15C21.3522 15 20.9706 15.158 20.6893 15.4393C20.408 15.7206 20.25 16.1022 20.25 16.5C20.25 16.8978 20.408 17.2794 20.6893 17.5607C20.9706 17.842 21.3522 18 21.75 18ZM9.75 21C9.75 21.3978 9.59196 21.7794 9.31066 22.0607C9.02936 22.342 8.64782 22.5 8.25 22.5C7.85218 22.5 7.47064 22.342 7.18934 22.0607C6.90804 21.7794 6.75 21.3978 6.75 21C6.75 20.6022 6.90804 20.2206 7.18934 19.9393C7.47064 19.658 7.85218 19.5 8.25 19.5C8.64782 19.5 9.02936 19.658 9.31066 19.9393C9.59196 20.2206 9.75 20.6022 9.75 21ZM12.75 22.5C13.1478 22.5 13.5294 22.342 13.8107 22.0607C14.092 21.7794 14.25 21.3978 14.25 21C14.25 20.6022 14.092 20.2206 13.8107 19.9393C13.5294 19.658 13.1478 19.5 12.75 19.5C12.3522 19.5 11.9706 19.658 11.6893 19.9393C11.408 20.2206 11.25 20.6022 11.25 21C11.25 21.3978 11.408 21.7794 11.6893 22.0607C11.9706 22.342 12.3522 22.5 12.75 22.5ZM18.75 21C18.75 21.3978 18.592 21.7794 18.3107 22.0607C18.0294 22.342 17.6478 22.5 17.25 22.5C16.8522 22.5 16.4706 22.342 16.1893 22.0607C15.908 21.7794 15.75 21.3978 15.75 21C15.75 20.6022 15.908 20.2206 16.1893 19.9393C16.4706 19.658 16.8522 19.5 17.25 19.5C17.6478 19.5 18.0294 19.658 18.3107 19.9393C18.592 20.2206 18.75 20.6022 18.75 21Z" fill="#374CB5"/>
</svg>
