<svg width="24" height="24" viewBox="0 0 24 24" fill="none" xmlns="http://www.w3.org/2000/svg">
<path fill-rule="evenodd" clip-rule="evenodd" d="M19.4808 2.02539H4.51903C3.85767 2.02539 3.22341 2.28811 2.75576 2.75576C2.28811 3.22341 2.02539 3.85767 2.02539 4.51903L2.02539 19.4808C2.02539 20.1422 2.28811 20.7764 2.75576 21.2441C3.22341 21.7117 3.85767 21.9745 4.51903 21.9745H19.4808C20.1422 21.9745 20.7764 21.7117 21.2441 21.2441C21.7117 20.7764 21.9745 20.1422 21.9745 19.4808V4.51903C21.9745 3.85767 21.7117 3.22341 21.2441 2.75576C20.7764 2.28811 20.1422 2.02539 19.4808 2.02539V2.02539ZM3.27221 6.83436C3.27221 6.24462 3.83078 5.76584 4.51903 5.76584H19.4808C20.1691 5.76584 20.7276 6.24462 20.7276 6.83436V19.6591C20.7276 20.2489 20.1691 20.7276 19.4808 20.7276H4.51903C3.83078 20.7276 3.27221 20.2489 3.27221 19.6591V6.83436Z" fill="#495057"/>
<path fill-rule="evenodd" clip-rule="evenodd" d="M10.1298 10.7534C10.4605 10.7534 10.7777 10.622 11.0115 10.3882C11.2453 10.1544 11.3767 9.83726 11.3767 9.50658C11.3767 9.17591 11.2453 8.85877 11.0115 8.62495C10.7777 8.39113 10.4605 8.25977 10.1298 8.25977C9.79917 8.25977 9.48204 8.39113 9.24821 8.62495C9.01439 8.85877 8.88303 9.17591 8.88303 9.50658C8.88303 9.83726 9.01439 10.1544 9.24821 10.3882C9.48204 10.622 9.79917 10.7534 10.1298 10.7534ZM13.8703 10.7534C14.201 10.7534 14.5181 10.622 14.7519 10.3882C14.9858 10.1544 15.1171 9.83726 15.1171 9.50658C15.1171 9.17591 14.9858 8.85877 14.7519 8.62495C14.5181 8.39113 14.201 8.25977 13.8703 8.25977C13.5396 8.25977 13.2225 8.39113 12.9887 8.62495C12.7548 8.85877 12.6235 9.17591 12.6235 9.50658C12.6235 9.83726 12.7548 10.1544 12.9887 10.3882C13.2225 10.622 13.5396 10.7534 13.8703 10.7534ZM17.6108 10.7534C17.9414 10.7534 18.2586 10.622 18.4924 10.3882C18.7262 10.1544 18.8576 9.83726 18.8576 9.50658C18.8576 9.17591 18.7262 8.85877 18.4924 8.62495C18.2586 8.39113 17.9414 8.25977 17.6108 8.25977C17.2801 8.25977 16.9629 8.39113 16.7291 8.62495C16.4953 8.85877 16.3639 9.17591 16.3639 9.50658C16.3639 9.83726 16.4953 10.1544 16.7291 10.3882C16.9629 10.622 17.2801 10.7534 17.6108 10.7534ZM6.3894 14.4939C6.72007 14.4939 7.0372 14.3625 7.27103 14.1287C7.50485 13.8948 7.63621 13.5777 7.63621 13.247C7.63621 12.9164 7.50485 12.5992 7.27103 12.3654C7.0372 12.1316 6.72007 12.0002 6.3894 12.0002C6.05872 12.0002 5.74159 12.1316 5.50776 12.3654C5.27394 12.5992 5.14258 12.9164 5.14258 13.247C5.14258 13.5777 5.27394 13.8948 5.50776 14.1287C5.74159 14.3625 6.05872 14.4939 6.3894 14.4939ZM10.1298 14.4939C10.4605 14.4939 10.7777 14.3625 11.0115 14.1287C11.2453 13.8948 11.3767 13.5777 11.3767 13.247C11.3767 12.9164 11.2453 12.5992 11.0115 12.3654C10.7777 12.1316 10.4605 12.0002 10.1298 12.0002C9.79917 12.0002 9.48204 12.1316 9.24821 12.3654C9.01439 12.5992 8.88303 12.9164 8.88303 13.247C8.88303 13.5777 9.01439 13.8948 9.24821 14.1287C9.48204 14.3625 9.79917 14.4939 10.1298 14.4939ZM13.8703 14.4939C14.201 14.4939 14.5181 14.3625 14.7519 14.1287C14.9858 13.8948 15.1171 13.5777 15.1171 13.247C15.1171 12.9164 14.9858 12.5992 14.7519 12.3654C14.5181 12.1316 14.201 12.0002 13.8703 12.0002C13.5396 12.0002 13.2225 12.1316 12.9887 12.3654C12.7548 12.5992 12.6235 12.9164 12.6235 13.247C12.6235 13.5777 12.7548 13.8948 12.9887 14.1287C13.2225 14.3625 13.5396 14.4939 13.8703 14.4939ZM17.6108 14.4939C17.9414 14.4939 18.2586 14.3625 18.4924 14.1287C18.7262 13.8948 18.8576 13.5777 18.8576 13.247C18.8576 12.9164 18.7262 12.5992 18.4924 12.3654C18.2586 12.1316 17.9414 12.0002 17.6108 12.0002C17.2801 12.0002 16.9629 12.1316 16.7291 12.3654C16.4953 12.5992 16.3639 12.9164 16.3639 13.247C16.3639 13.5777 16.4953 13.8948 16.7291 14.1287C16.9629 14.3625 17.2801 14.4939 17.6108 14.4939ZM6.3894 18.2343C6.72007 18.2343 7.0372 18.1029 7.27103 17.8691C7.50485 17.6353 7.63621 17.3182 7.63621 16.9875C7.63621 16.6568 7.50485 16.3397 7.27103 16.1059C7.0372 15.872 6.72007 15.7407 6.3894 15.7407C6.05872 15.7407 5.74159 15.872 5.50776 16.1059C5.27394 16.3397 5.14258 16.6568 5.14258 16.9875C5.14258 17.3182 5.27394 17.6353 5.50776 17.8691C5.74159 18.1029 6.05872 18.2343 6.3894 18.2343ZM10.1298 18.2343C10.4605 18.2343 10.7777 18.1029 11.0115 17.8691C11.2453 17.6353 11.3767 17.3182 11.3767 16.9875C11.3767 16.6568 11.2453 16.3397 11.0115 16.1059C10.7777 15.872 10.4605 15.7407 10.1298 15.7407C9.79917 15.7407 9.48204 15.872 9.24821 16.1059C9.01439 16.3397 8.88303 16.6568 8.88303 16.9875C8.88303 17.3182 9.01439 17.6353 9.24821 17.8691C9.48204 18.1029 9.79917 18.2343 10.1298 18.2343ZM13.8703 18.2343C14.201 18.2343 14.5181 18.1029 14.7519 17.8691C14.9858 17.6353 15.1171 17.3182 15.1171 16.9875C15.1171 16.6568 14.9858 16.3397 14.7519 16.1059C14.5181 15.872 14.201 15.7407 13.8703 15.7407C13.5396 15.7407 13.2225 15.872 12.9887 16.1059C12.7548 16.3397 12.6235 16.6568 12.6235 16.9875C12.6235 17.3182 12.7548 17.6353 12.9887 17.8691C13.2225 18.1029 13.5396 18.2343 13.8703 18.2343Z" fill="#495057"/>
</svg>
