<svg width="24" height="24" viewBox="0 0 24 24" fill="none" xmlns="http://www.w3.org/2000/svg">
<path fill-rule="evenodd" clip-rule="evenodd" d="M12 20.75C14.3206 20.75 16.5462 19.8281 18.1872 18.1872C19.8281 16.5462 20.75 14.3206 20.75 12C20.75 9.67936 19.8281 7.45376 18.1872 5.81282C16.5462 4.17187 14.3206 3.25 12 3.25C9.67936 3.25 7.45376 4.17187 5.81282 5.81282C4.17187 7.45376 3.25 9.67936 3.25 12C3.25 14.3206 4.17187 16.5462 5.81282 18.1872C7.45376 19.8281 9.67936 20.75 12 20.75ZM22 12C22 14.6522 20.9464 17.1957 19.0711 19.0711C17.1957 20.9464 14.6522 22 12 22C9.34784 22 6.8043 20.9464 4.92893 19.0711C3.05357 17.1957 2 14.6522 2 12C2 9.34784 3.05357 6.8043 4.92893 4.92893C6.8043 3.05357 9.34784 2 12 2C14.6522 2 17.1957 3.05357 19.0711 4.92893C20.9464 6.8043 22 9.34784 22 12Z" fill="#495057"/>
<path fill-rule="evenodd" clip-rule="evenodd" d="M11.375 5.75C11.5408 5.75 11.6997 5.81585 11.8169 5.93306C11.9342 6.05027 12 6.20924 12 6.375V12.8875L16.06 15.2075C16.1997 15.2918 16.301 15.4274 16.342 15.5854C16.3831 15.7433 16.3608 15.9111 16.2798 16.0527C16.1988 16.1944 16.0657 16.2989 15.9087 16.3437C15.7518 16.3885 15.5836 16.3701 15.44 16.2925L11.065 13.7925C10.9693 13.7379 10.8898 13.6589 10.8345 13.5636C10.7792 13.4684 10.75 13.3602 10.75 13.25V6.375C10.75 6.20924 10.8158 6.05027 10.9331 5.93306C11.0503 5.81585 11.2092 5.75 11.375 5.75Z" fill="#495057"/>
</svg>
