<svg width="24" height="24" viewBox="0 0 24 24" fill="none" xmlns="http://www.w3.org/2000/svg">
<path fill-rule="evenodd" clip-rule="evenodd" d="M17.781 6.21936C17.8508 6.28903 17.9062 6.3718 17.944 6.46291C17.9818 6.55403 18.0013 6.65171 18.0013 6.75036C18.0013 6.84902 17.9818 6.9467 17.944 7.03781C17.9062 7.12893 17.8508 7.2117 17.781 7.28136L7.28097 17.7814C7.14014 17.9222 6.94913 18.0013 6.74997 18.0013C6.55081 18.0013 6.3598 17.9222 6.21897 17.7814C6.07814 17.6405 5.99902 17.4495 5.99902 17.2504C5.99902 17.0512 6.07814 16.8602 6.21897 16.7194L16.719 6.21936C16.7886 6.14952 16.8714 6.0941 16.9625 6.0563C17.0536 6.01849 17.1513 5.99902 17.25 5.99902C17.3486 5.99902 17.4463 6.01849 17.5374 6.0563C17.6285 6.0941 17.7113 6.14952 17.781 6.21936Z" fill="#212529"/>
<path fill-rule="evenodd" clip-rule="evenodd" d="M6.21888 6.21936C6.14903 6.28903 6.09362 6.3718 6.05581 6.46291C6.018 6.55403 5.99854 6.65171 5.99854 6.75036C5.99854 6.84902 6.018 6.9467 6.05581 7.03781C6.09362 7.12893 6.14903 7.2117 6.21888 7.28136L16.7189 17.7814C16.8597 17.9222 17.0507 18.0013 17.2499 18.0013C17.449 18.0013 17.64 17.9222 17.7809 17.7814C17.9217 17.6405 18.0008 17.4495 18.0008 17.2504C18.0008 17.0512 17.9217 16.8602 17.7809 16.7194L7.28088 6.21936C7.21121 6.14952 7.12844 6.0941 7.03733 6.0563C6.94621 6.01849 6.84853 5.99902 6.74988 5.99902C6.65122 5.99902 6.55354 6.01849 6.46243 6.0563C6.37131 6.0941 6.28854 6.14952 6.21888 6.21936Z" fill="#212529"/>
</svg>
