<svg width="24" height="26" viewBox="0 0 24 26" fill="none" xmlns="http://www.w3.org/2000/svg">
<path d="M18.7473 17.0768C20.8889 15.1655 22.0725 13 22.0725 13C22.0725 13 18.2953 6.0752 12.0001 6.0752C10.7909 6.07936 9.59534 6.33132 8.4873 6.81552L9.45677 7.78624C10.2719 7.4893 11.1325 7.33636 12.0001 7.33425C14.6692 7.33425 16.8839 8.80482 18.5068 10.4277C19.2879 11.213 19.9881 12.0747 20.5969 13C20.5238 13.1095 20.4432 13.2304 20.3513 13.3626C19.9296 13.9669 19.3063 14.7727 18.5068 15.5722C18.2991 15.78 18.0825 15.9852 17.8559 16.1841L18.7473 17.0768Z" fill="black"/>
<path d="M16.1515 14.4806C16.4325 13.6947 16.4845 12.8452 16.3015 12.031C16.1186 11.2167 15.7082 10.4711 15.118 9.88102C14.5279 9.29089 13.7823 8.88048 12.9681 8.69752C12.1538 8.51457 11.3043 8.5666 10.5185 8.84757L11.5547 9.88376C12.0386 9.81451 12.5319 9.85889 12.9956 10.0134C13.4594 10.1679 13.8808 10.4283 14.2264 10.7739C14.572 11.1196 14.8324 11.5409 14.9869 12.0047C15.1414 12.4684 15.1858 12.9618 15.1166 13.4456L16.1515 14.4806ZM12.4461 16.1161L13.481 17.151C12.6952 17.432 11.8457 17.484 11.0315 17.301C10.2172 17.1181 9.47163 16.7077 8.88151 16.1175C8.29138 15.5274 7.88097 14.7819 7.69801 13.9676C7.51506 13.1533 7.56709 12.3039 7.84805 11.518L8.88425 12.5542C8.815 13.0381 8.85938 13.5314 9.01389 13.9952C9.1684 14.4589 9.42878 14.8803 9.77442 15.2259C10.12 15.5715 10.5414 15.8319 11.0052 15.9864C11.4689 16.1409 11.9622 16.1853 12.4461 16.1161Z" fill="black"/>
<path d="M6.14555 9.8145C5.91892 10.016 5.70111 10.2199 5.49336 10.4277C4.71231 11.2129 4.01212 12.0747 3.40334 12.9999L3.64886 13.3625C4.07064 13.9669 4.69387 14.7726 5.49336 15.5721C7.11628 17.1951 9.33221 18.6656 12.0001 18.6656C12.9016 18.6656 13.7502 18.4982 14.5434 18.2124L15.5129 19.1844C14.4048 19.6685 13.2093 19.9205 12.0001 19.9247C5.70489 19.9247 1.92773 12.9999 1.92773 12.9999C1.92773 12.9999 3.10998 10.8331 5.25289 8.9231L6.14429 9.81576L6.14555 9.8145Z" fill="black"/>
<path fill-rule="evenodd" clip-rule="evenodd" d="M19.1086 21L4 5.89141L4.89141 5L20 20.1086L19.1086 21Z" fill="black"/>
</svg>
