<svg width="30" height="30" viewBox="0 0 30 30" fill="none" xmlns="http://www.w3.org/2000/svg">
<path d="M23.5812 12.4999H23.0742V10.1288C23.0742 5.74328 19.5912 2.07981 15.2378 2.0016C15.1188 1.99947 14.8812 1.99947 14.7623 2.0016C10.4088 2.07981 6.92582 5.74328 6.92582 10.1288V12.4999H6.41874C5.63736 12.4999 5 13.3055 5 14.3005V26.1929C5 27.1868 5.63736 28 6.4188 28H23.5812C24.3626 28 25 27.1868 25 26.1929V14.3005C25 13.3056 24.3626 12.4999 23.5812 12.4999ZM16.6079 20.2347V23.8281C16.6079 24.2396 16.2631 24.5878 15.851 24.5878H14.1491C13.7369 24.5878 13.3922 24.2396 13.3922 23.8281V20.2347C12.9924 19.8415 12.7597 19.2979 12.7597 18.6965C12.7597 17.5569 13.6413 16.5777 14.7623 16.5324C14.8811 16.5276 15.1191 16.5276 15.2378 16.5324C16.3588 16.5777 17.2404 17.5569 17.2404 18.6965C17.2403 19.2979 17.0076 19.8415 16.6079 20.2347ZM19.7323 12.4999H15.2378H14.7623H10.2677V10.1288C10.2677 7.51641 12.3924 5.35637 15 5.35637C17.6075 5.35637 19.7324 7.51641 19.7324 10.1288V12.4999H19.7323Z" fill="#374CB5"/>
</svg>
