<svg width="18" height="4" viewBox="0 0 18 4" fill="none" xmlns="http://www.w3.org/2000/svg">
<path fill-rule="evenodd" clip-rule="evenodd" d="M2.07692 4C1.52609 4 0.997815 3.78929 0.608317 3.41421C0.218818 3.03914 0 2.53043 0 2C0 1.46957 0.218818 0.960859 0.608317 0.585786C0.997815 0.210713 1.52609 0 2.07692 0C2.62776 0 3.15603 0.210713 3.54553 0.585786C3.93503 0.960859 4.15385 1.46957 4.15385 2C4.15385 2.53043 3.93503 3.03914 3.54553 3.41421C3.15603 3.78929 2.62776 4 2.07692 4ZM9 4C8.44917 4 7.92089 3.78929 7.53139 3.41421C7.14189 3.03914 6.92308 2.53043 6.92308 2C6.92308 1.46957 7.14189 0.960859 7.53139 0.585786C7.92089 0.210713 8.44917 0 9 0C9.55083 0 10.0791 0.210713 10.4686 0.585786C10.8581 0.960859 11.0769 1.46957 11.0769 2C11.0769 2.53043 10.8581 3.03914 10.4686 3.41421C10.0791 3.78929 9.55083 4 9 4ZM15.9231 4C15.3722 4 14.844 3.78929 14.4545 3.41421C14.065 3.03914 13.8462 2.53043 13.8462 2C13.8462 1.46957 14.065 0.960859 14.4545 0.585786C14.844 0.210713 15.3722 0 15.9231 0C16.4739 0 17.0022 0.210713 17.3917 0.585786C17.7812 0.960859 18 1.46957 18 2C18 2.53043 17.7812 3.03914 17.3917 3.41421C17.0022 3.78929 16.4739 4 15.9231 4Z" fill="#212529"/>
</svg>
