<svg width="24" height="24" viewBox="0 0 24 24" fill="none" xmlns="http://www.w3.org/2000/svg">
<path fill-rule="evenodd" clip-rule="evenodd" d="M22 11.9999C22 11.9999 18.25 5.33325 12 5.33325C5.75 5.33325 2 11.9999 2 11.9999C2 11.9999 5.75 18.6666 12 18.6666C18.25 18.6666 22 11.9999 22 11.9999ZM3.46625 11.9999C4.07065 12.8907 4.76581 13.7203 5.54125 14.4763C7.15 16.0387 9.35 17.4545 12 17.4545C14.65 17.4545 16.8488 16.0387 18.46 14.4763C19.2354 13.7203 19.9306 12.8907 20.535 11.9999C19.9306 11.1092 19.2354 10.2795 18.46 9.52355C16.8488 7.96113 14.6488 6.54537 12 6.54537C9.35 6.54537 7.15125 7.96113 5.54 9.52355C4.76455 10.2795 4.06939 11.1092 3.465 11.9999H3.46625Z" fill="black"/>
<path fill-rule="evenodd" clip-rule="evenodd" d="M12.0001 8.82526C11.1582 8.82526 10.3507 9.15973 9.75533 9.75508C9.15997 10.3504 8.82551 11.1579 8.82551 11.9999C8.82551 12.8418 9.15997 13.6493 9.75533 14.2446C10.3507 14.84 11.1582 15.1745 12.0001 15.1745C12.8421 15.1745 13.6495 14.84 14.2449 14.2446C14.8402 13.6493 15.1747 12.8418 15.1747 11.9999C15.1747 11.1579 14.8402 10.3504 14.2449 9.75508C13.6495 9.15973 12.8421 8.82526 12.0001 8.82526ZM7.55566 11.9999C7.55566 10.8211 8.02392 9.69066 8.85741 8.85717C9.69091 8.02367 10.8214 7.55542 12.0001 7.55542C13.1788 7.55542 14.3093 8.02367 15.1428 8.85717C15.9763 9.69066 16.4446 10.8211 16.4446 11.9999C16.4446 13.1786 15.9763 14.3091 15.1428 15.1426C14.3093 15.9761 13.1788 16.4443 12.0001 16.4443C10.8214 16.4443 9.69091 15.9761 8.85741 15.1426C8.02392 14.3091 7.55566 13.1786 7.55566 11.9999Z" fill="black"/>
</svg>
