<svg width="13" height="13" viewBox="0 0 13 13" fill="none" xmlns="http://www.w3.org/2000/svg">
<path d="M2.99219 6.28906C4.41406 6.28906 5.27344 5.20312 5.27344 3.46094V3.45312C5.27344 1.71875 4.41406 0.632812 2.99219 0.632812C1.57031 0.632812 0.710938 1.71875 0.710938 3.45312V3.46094C0.710938 5.20312 1.57031 6.28906 2.99219 6.28906ZM3.5 12L10.7188 0.726562H9.45312L2.21875 12H3.5ZM2.99219 5.35156C2.23438 5.35156 1.79688 4.64844 1.79688 3.46094V3.45312C1.79688 2.26562 2.23438 1.57031 2.99219 1.57031C3.75 1.57031 4.1875 2.26562 4.1875 3.45312V3.46094C4.1875 4.64844 3.75 5.35156 2.99219 5.35156ZM9.9375 12.0938C11.3594 12.0938 12.2188 11.0078 12.2188 9.26562V9.25781C12.2188 7.52344 11.3594 6.4375 9.9375 6.4375C8.51562 6.4375 7.65625 7.52344 7.65625 9.25781V9.26562C7.65625 11.0078 8.51562 12.0938 9.9375 12.0938ZM9.9375 11.1562C9.17969 11.1562 8.74219 10.4531 8.74219 9.26562V9.25781C8.74219 8.07031 9.17969 7.375 9.9375 7.375C10.6953 7.375 11.1328 8.07031 11.1328 9.25781V9.26562C11.1328 10.4531 10.6953 11.1562 9.9375 11.1562Z" fill="#495057"/>
</svg>
