<svg width="24" height="24" viewBox="0 0 24 24" fill="none" xmlns="http://www.w3.org/2000/svg">
<path fill-rule="evenodd" clip-rule="evenodd" d="M14.6797 14.6807C14.7686 14.5917 14.8741 14.5211 14.9903 14.473C15.1065 14.4248 15.2311 14.4 15.3569 14.4C15.4827 14.4 15.6072 14.4248 15.7234 14.473C15.8396 14.5211 15.9452 14.5917 16.0341 14.6807L19.7193 18.3656C19.8989 18.545 19.9998 18.7885 19.9999 19.0424C20 19.2963 19.8992 19.5398 19.7197 19.7194C19.5403 19.899 19.2968 19.9999 19.0429 20C18.7889 20.0001 18.5454 19.8993 18.3658 19.7199L14.6806 16.035C14.5916 15.9461 14.521 15.8406 14.4729 15.7244C14.4247 15.6082 14.3999 15.4837 14.3999 15.3579C14.3999 15.2321 14.4247 15.1076 14.4729 14.9914C14.521 14.8752 14.5916 14.7696 14.6806 14.6807H14.6797Z" fill="black"/>
<path fill-rule="evenodd" clip-rule="evenodd" d="M10.4 15.8154C11.1112 15.8154 11.8154 15.6753 12.4724 15.4032C13.1294 15.131 13.7264 14.7321 14.2293 14.2293C14.7321 13.7264 15.131 13.1294 15.4032 12.4724C15.6753 11.8154 15.8154 11.1112 15.8154 10.4C15.8154 9.68884 15.6753 8.98465 15.4032 8.32762C15.131 7.6706 14.7321 7.07361 14.2293 6.57074C13.7264 6.06788 13.1294 5.66899 12.4724 5.39684C11.8154 5.12469 11.1112 4.98462 10.4 4.98462C8.96375 4.98462 7.58633 5.55516 6.57074 6.57074C5.55516 7.58633 4.98462 8.96375 4.98462 10.4C4.98462 11.8362 5.55516 13.2137 6.57074 14.2293C7.58633 15.2448 8.96375 15.8154 10.4 15.8154ZM16.8 10.4C16.8 12.0974 16.1257 13.7253 14.9255 14.9255C13.7253 16.1257 12.0974 16.8 10.4 16.8C8.70261 16.8 7.07475 16.1257 5.87452 14.9255C4.67428 13.7253 4 12.0974 4 10.4C4 8.70261 4.67428 7.07475 5.87452 5.87452C7.07475 4.67428 8.70261 4 10.4 4C12.0974 4 13.7253 4.67428 14.9255 5.87452C16.1257 7.07475 16.8 8.70261 16.8 10.4Z" fill="black"/>
</svg>
