<svg width="30" height="30" viewBox="0 0 30 30" fill="none" xmlns="http://www.w3.org/2000/svg">
<path fill-rule="evenodd" clip-rule="evenodd" d="M13.375 25C13.375 25 11.75 25 11.75 23.3333C11.75 21.6667 13.375 16.6667 19.875 16.6667C26.375 16.6667 28 21.6667 28 23.3333C28 25 26.375 25 26.375 25H13.375ZM19.875 15C21.1679 15 22.4079 14.4732 23.3221 13.5355C24.2364 12.5979 24.75 11.3261 24.75 10C24.75 8.67392 24.2364 7.40215 23.3221 6.46447C22.4079 5.52678 21.1679 5 19.875 5C18.5821 5 17.3421 5.52678 16.4279 6.46447C15.5136 7.40215 15 8.67392 15 10C15 11.3261 15.5136 12.5979 16.4279 13.5355C17.3421 14.4732 18.5821 15 19.875 15ZM10.476 25C10.2351 24.4797 10.115 23.9092 10.125 23.3333C10.125 21.075 11.23 18.75 13.271 17.1333C12.2523 16.8114 11.1909 16.654 10.125 16.6667C3.625 16.6667 2 21.6667 2 23.3333C2 25 3.625 25 3.625 25H10.476ZM9.3125 15C10.3899 15 11.4233 14.561 12.1851 13.7796C12.947 12.9982 13.375 11.9384 13.375 10.8333C13.375 9.72826 12.947 8.66846 12.1851 7.88705C11.4233 7.10565 10.3899 6.66667 9.3125 6.66667C8.23506 6.66667 7.20175 7.10565 6.43988 7.88705C5.67801 8.66846 5.25 9.72826 5.25 10.8333C5.25 11.9384 5.67801 12.9982 6.43988 13.7796C7.20175 14.561 8.23506 15 9.3125 15Z" fill="#374CB5"/>
</svg>
